<svg width="122" height="36" viewBox="0 0 122 36" fill="none" xmlns="http://www.w3.org/2000/svg">
<path d="M112.253 24.2045V23.582H115.988V24.2045H114.553V27.3382H113.688V24.2045H112.253ZM117.972 23.582L119.09 26.2726L120.219 23.582H121.464V27.3382H120.662V24.3101L119.449 27.3382H118.752L117.528 24.3101V27.3382H116.727V23.582H117.972Z" fill="#11254A"/>
<path d="M98.5468 24.1943C99.0321 24.1943 99.4964 24.2365 99.9395 24.3315C100.383 24.4265 100.773 24.5742 101.121 24.7957C101.459 25.0173 101.733 25.3022 101.934 25.6715C102.134 26.0302 102.24 26.4839 102.24 27.022C102.24 27.328 102.187 27.6129 102.092 27.8978C101.997 28.1826 101.86 28.4359 101.68 28.668C101.501 28.9001 101.29 29.1006 101.047 29.2588C100.805 29.4171 100.53 29.5332 100.235 29.5965V29.6281C100.974 29.7231 101.564 30.0291 102.008 30.5355C102.451 31.042 102.672 31.675 102.672 32.4347C102.672 32.6141 102.651 32.8251 102.62 33.0572C102.588 33.2894 102.525 33.5215 102.43 33.7642C102.335 34.0068 102.197 34.2495 102.008 34.4816C101.828 34.7138 101.575 34.9248 101.269 35.1041C100.963 35.2835 100.583 35.4312 100.14 35.5367C99.6968 35.6528 99.1587 35.7056 98.5362 35.7056H93.6616V24.1943H98.5468ZM98.5468 29.2483C98.9899 29.2483 99.3698 29.1955 99.6969 29.09C100.024 28.9845 100.288 28.8474 100.499 28.668C100.71 28.4886 100.879 28.2881 100.984 28.0455C101.09 27.8134 101.142 27.5601 101.142 27.2858C101.142 25.8403 100.277 25.1228 98.5468 25.1228H94.7695V29.2377H98.5468V29.2483ZM98.5468 34.7771C98.9583 34.7771 99.3381 34.7454 99.7074 34.6715C100.077 34.5977 100.393 34.4711 100.678 34.2917C100.952 34.1123 101.174 33.8591 101.343 33.5531C101.512 33.2472 101.585 32.8673 101.585 32.4031C101.585 31.6645 101.322 31.1053 100.805 30.736C100.288 30.3667 99.528 30.1768 98.5573 30.1768H94.78V34.7771H98.5468Z" fill="#11254A"/>
<path d="M104.561 33.4047C104.751 33.8057 105.025 34.1222 105.363 34.3543C105.7 34.5865 106.101 34.7553 106.566 34.8608C107.03 34.9663 107.526 35.0191 108.053 35.0191C108.359 35.0191 108.686 34.9768 109.035 34.8924C109.393 34.808 109.72 34.6709 110.026 34.4809C110.332 34.291 110.586 34.0484 110.797 33.7529C110.997 33.4575 111.103 33.0988 111.103 32.6767C111.103 32.3496 111.029 32.0753 110.881 31.8432C110.733 31.6111 110.543 31.4106 110.311 31.2418C110.079 31.0835 109.826 30.9463 109.541 30.8514C109.256 30.7459 108.992 30.6615 108.718 30.5982L106.154 29.9651C105.817 29.8807 105.5 29.7752 105.184 29.638C104.867 29.5114 104.593 29.332 104.35 29.121C104.118 28.91 103.917 28.6462 103.78 28.3297C103.632 28.0131 103.559 27.6333 103.559 27.1796C103.559 26.9053 103.611 26.5676 103.717 26.1984C103.822 25.8185 104.023 25.4703 104.318 25.1327C104.614 24.7951 105.015 24.5207 105.532 24.2886C106.049 24.0565 106.713 23.9404 107.515 23.9404C108.085 23.9404 108.623 24.0143 109.14 24.162C109.657 24.3097 110.111 24.5418 110.491 24.8373C110.881 25.1433 111.187 25.5125 111.419 25.9557C111.651 26.3988 111.767 26.9158 111.767 27.5067H110.67C110.649 27.0635 110.554 26.6837 110.375 26.3566C110.195 26.0295 109.963 25.7552 109.678 25.5336C109.393 25.3121 109.066 25.1433 108.697 25.0377C108.328 24.9217 107.937 24.8689 107.526 24.8689C107.146 24.8689 106.787 24.9111 106.439 24.985C106.091 25.0588 105.785 25.196 105.521 25.3754C105.257 25.5547 105.046 25.7869 104.888 26.0823C104.73 26.3777 104.645 26.7365 104.645 27.1585C104.645 27.4223 104.688 27.665 104.783 27.8549C104.878 28.0553 105.004 28.2242 105.162 28.3613C105.321 28.4985 105.511 28.6146 105.722 28.699C105.933 28.7834 106.154 28.8572 106.386 28.91L109.193 29.6064C109.604 29.7119 109.984 29.849 110.343 29.9967C110.702 30.155 111.018 30.3449 111.293 30.5771C111.567 30.8092 111.778 31.0941 111.936 31.4211C112.094 31.7588 112.168 32.1597 112.168 32.6345C112.168 32.7611 112.158 32.9405 112.126 33.1515C112.094 33.3625 112.031 33.5947 111.936 33.8373C111.831 34.08 111.694 34.3227 111.504 34.5759C111.314 34.8186 111.06 35.0507 110.733 35.2406C110.406 35.4411 109.995 35.5994 109.52 35.726C109.045 35.8526 108.454 35.9159 107.779 35.9159C107.104 35.9159 106.471 35.842 105.89 35.6838C105.31 35.5255 104.814 35.2934 104.403 34.9663C103.991 34.6392 103.675 34.2277 103.464 33.7213C103.242 33.2148 103.147 32.6134 103.179 31.8959H104.276C104.276 32.5184 104.361 33.0038 104.561 33.4047Z" fill="#11254A"/>
<path d="M77.2023 24.1934V34.7761H83.649V35.7151H76.105V24.1934H77.2023Z" fill="#11254A"/>
<path d="M88.6923 24.1934L93.2081 35.7046H92.0264L90.6231 32.1278H85.3792L83.997 35.7046H82.8364L87.4683 24.1934H88.6923ZM90.2644 31.1993L88.0381 25.3012L85.7274 31.1993H90.2644Z" fill="#11254A"/>
<path d="M83.29 0.0107422H91.351V6.66847H83.29" fill="#31BCB0"/>
<path d="M78.0358 0.0107422H74.3429H49.8223V6.66847H65.5011V36.0004H74.2163V6.66847H74.3429H78.0358H82.1824V0.0107422H78.0358Z" fill="#11254A"/>
<path d="M43.6605 0.0107422V29.3427H62.9901V36.0004H34.9453V0.0107422H43.6605Z" fill="#11254A"/>
<path d="M17.1032 0.0105493C19.6566 0.0105493 22.0306 0.379838 24.2358 1.11841C26.4409 1.85699 28.3401 2.96485 29.9544 4.442C31.5687 5.91915 32.8243 7.76559 33.7317 9.98131C34.6391 12.197 35.0929 14.8032 35.0929 17.7891C35.0929 20.4058 34.7235 22.8325 33.985 25.0482C33.2464 27.264 32.128 29.1843 30.6297 30.788C29.1315 32.4023 27.2639 33.6685 25.0165 34.597C22.7797 35.5254 20.1419 35.9791 17.1032 35.9791H0V0H17.1032V0.0105493ZM16.4913 29.3425C17.7469 29.3425 18.9708 29.1632 20.1525 28.7833C21.3342 28.414 22.3893 27.8021 23.3178 26.9474C24.2463 26.0928 24.9849 24.9744 25.5441 23.5922C26.1033 22.21 26.3777 20.5324 26.3777 18.5488C26.3777 16.734 26.1878 15.0986 25.7974 13.632C25.407 12.1654 24.7739 10.9204 23.8771 9.8758C22.9908 8.83124 21.809 8.03991 20.353 7.48071C18.8864 6.93205 17.0822 6.64717 14.9403 6.64717H8.72569V29.3214H16.4913V29.3425Z" fill="#11254A"/>
</svg>