<svg width="16" height="16" viewBox="0 0 24 24" fill="none" xmlns="http://www.w3.org/2000/svg">
<path d="M3 3L21 21" stroke="#172B4D" stroke-width="1.7" stroke-linecap="round" stroke-linejoin="round"/>
<path d="M10.5835 10.5872C10.2082 10.9622 9.99726 11.4709 9.99707 12.0015C9.99688 12.532 10.2075 13.0409 10.5825 13.4162C10.9575 13.7914 11.4662 14.0024 11.9968 14.0026C12.5273 14.0027 13.0362 13.7922 13.4115 13.4172" stroke="#172B4D" stroke-width="1.7" stroke-linecap="round" stroke-linejoin="round"/>
<path d="M17.357 17.3491C15.726 18.4491 13.942 19.0001 12 19.0001C8 19.0001 4.667 16.6671 2 12.0001C3.369 9.60506 4.913 7.82506 6.632 6.65906M9.363 5.36506C10.2204 5.11978 11.1082 4.9969 12 5.00006C16 5.00006 19.333 7.33306 22 12.0001C21.222 13.3611 20.388 14.5241 19.497 15.4881L9.363 5.36506Z" stroke="#172B4D" stroke-width="1.7" stroke-linecap="round" stroke-linejoin="round"/>
</svg>
